# xmcd
#
# Track frame offsets:
# 150
# 15247
# 25444
# 38649
# 55250
# 68088
# 80141
# 92797
# 107194
# 122516
# 140300
# 159092
# 171114
# 186673
#
# Disc length: 2625 seconds
#
#
# Revision: 4
# Processed by: cddbd v1.5.2PL0 Copyright (c) Steve Scherf et al.
# Submitted via: FreeRIP 2.951 
#
DISCID=b30a3f0e
DTITLE=Various Artist - 
DYEAR=2004
DGENRE=Country
TTITLE0=Sérgio Reis - O Menino da Porteira
TTITLE1=Lourenço and Lourival - Bica D'Água
TTITLE2=Canhotinho - Luar do Sertão
TTITLE3=Inezita Barroso and Roberto Luna - Romaria
TTITLE4=Gilberto and Gilmar - Cabloca Tereza
TTITLE5=As Mineirinhas - A Rival
TTITLE6=Gino and Geno - Roubando a Morena
TTITLE7=Solevante and Soleny - Arapuca
TTITLE8=João Mineiro and Marciano - Viola Está Chorando
TTITLE9=João Paulo and Daniel - Dia de Visita
TTITLE10=Milionário and José Rico - Levando a Vida
TTITLE11=Iridio and Irineu - O Grande Golpe
TTITLE12=Vera and Vânia - Beijinho Doce
TTITLE13=Zé Bettio - O Sanfoneiro Só Tocava Isso
EXTD=
EXTT0=
EXTT1=
EXTT2=
EXTT3=
EXTT4=
EXTT5=
EXTT6=
EXTT7=
EXTT8=
EXTT9=
EXTT10=
EXTT11=
EXTT12=
EXTT13=
PLAYORDER=
